<svg width="143" height="66" viewBox="0 0 143 66" fill="none" xmlns="http://www.w3.org/2000/svg">
<rect x="22.7343" y="22.7349" width="119.696" height="42.9828" rx="7.21198" fill="#FFE245"/>
<path d="M45.9993 49.3706C43.1866 49.3706 41.4846 47.4089 41.4846 44.3943C41.4846 41.3797 43.1866 39.418 45.9993 39.418C48.5956 39.418 50.1678 40.8604 50.1678 43.1827V43.2692H48.5091V43.1827C48.5091 41.596 47.7734 40.9181 45.956 40.9181C43.9511 40.9181 43.1433 41.8845 43.1433 44.3943C43.1433 46.9041 43.9511 47.8705 45.956 47.8705C47.7734 47.8705 48.5091 47.1925 48.5091 45.6059V45.5194H50.1678V45.6059C50.1678 47.9282 48.5956 49.3706 45.9993 49.3706ZM54.7377 49.3706C52.5309 49.3706 51.1606 47.8705 51.1606 45.6348C51.1606 43.4135 52.5309 41.9134 54.7377 41.9134C56.9302 41.9134 58.2572 43.4135 58.2572 45.6348C58.2572 47.8705 56.9302 49.3706 54.7377 49.3706ZM54.7377 47.9859C56.2378 47.9859 56.7571 47.2502 56.7571 45.6348C56.7571 44.0337 56.2378 43.2981 54.7377 43.2981C53.2232 43.2981 52.6895 44.0337 52.6895 45.6348C52.6895 47.2502 53.2232 47.9859 54.7377 47.9859ZM60.9795 49.2263H59.4217V42.0576H60.8497V43.399H60.9073C61.2391 42.6346 61.9891 41.9134 63.3594 41.9134C64.6143 41.9134 65.3932 42.4903 65.7394 43.399H65.7826C66.1144 42.649 66.85 41.9134 68.2636 41.9134C70.1098 41.9134 70.932 43.0961 70.932 44.726V49.2263H69.3742V45.0722C69.3742 43.7885 68.9848 43.2548 67.6866 43.2548C66.5038 43.2548 65.9557 43.7452 65.9557 45.0578V49.2263H64.3979V45.0722C64.3979 43.7885 64.0085 43.2548 62.7103 43.2548C61.5276 43.2548 60.9795 43.7452 60.9795 45.0434V49.2263ZM73.9086 51.7217H72.3653V42.0576H73.7788V43.2404H73.8509C74.1827 42.4038 75.0048 41.9134 76.2453 41.9134C78.2647 41.9134 79.3753 43.3702 79.3753 45.6492C79.3753 47.9137 78.2935 49.3706 76.3463 49.3706C75.0625 49.3706 74.2692 48.7792 73.9519 48.1157H73.9086V51.7217ZM73.9086 46.2838C73.9086 47.481 74.601 48.0436 75.8703 48.0436C77.2406 48.0436 77.8175 47.4089 77.8175 45.6492C77.8175 43.875 77.255 43.2404 75.8703 43.2404C74.601 43.2404 73.9086 43.8029 73.9086 45.0001V46.2838ZM83.9659 49.3706C81.7591 49.3706 80.3888 47.8705 80.3888 45.6348C80.3888 43.4135 81.7591 41.9134 83.9659 41.9134C86.1584 41.9134 87.4854 43.4135 87.4854 45.6348C87.4854 47.8705 86.1584 49.3706 83.9659 49.3706ZM83.9659 47.9859C85.466 47.9859 85.9853 47.2502 85.9853 45.6348C85.9853 44.0337 85.466 43.2981 83.9659 43.2981C82.4514 43.2981 81.9177 44.0337 81.9177 45.6348C81.9177 47.2502 82.4514 47.9859 83.9659 47.9859ZM90.2077 49.2263H88.6499V42.0576H90.0779V43.399H90.1356C90.4673 42.6346 91.2318 41.9134 92.6309 41.9134C94.4916 41.9134 95.3282 43.0961 95.3282 44.726V49.2263H93.7704V45.0722C93.7704 43.7885 93.3665 43.2548 92.054 43.2548C90.7846 43.2548 90.2077 43.7452 90.2077 45.0866V49.2263ZM99.9792 49.3706C97.6137 49.3706 96.5031 47.8705 96.5031 45.6348C96.5031 43.4135 97.8301 41.9134 99.9648 41.9134C101.898 41.9134 103.253 43.0673 103.253 45.0289C103.253 45.404 103.21 45.7934 103.167 46.0098H97.9599C98.0176 47.3224 98.4936 47.9859 99.9937 47.9859C101.191 47.9859 101.652 47.582 101.652 46.9329V46.8175H103.196V46.9473C103.196 48.4186 101.912 49.3706 99.9792 49.3706ZM99.936 43.226C98.5801 43.226 98.0609 43.8606 97.9743 44.9713H101.768C101.826 43.7452 101.162 43.226 99.936 43.226ZM106.054 49.2263H104.497V42.0576H105.924V43.399H105.982C106.314 42.6346 107.078 41.9134 108.478 41.9134C110.338 41.9134 111.175 43.0961 111.175 44.726V49.2263H109.617V45.0722C109.617 43.7885 109.213 43.2548 107.901 43.2548C106.631 43.2548 106.054 43.7452 106.054 45.0866V49.2263ZM115.582 49.2263C113.981 49.2263 113.144 48.6349 113.144 47.0195V43.3558H111.947V42.0576H113.173L113.505 40.2835H114.702V42.0576H116.866V43.3558H114.702V46.9473C114.702 47.6974 115.019 47.8272 115.986 47.8272H116.866V49.0965C116.563 49.1686 116.072 49.2263 115.582 49.2263ZM120.836 49.3706C118.745 49.3706 117.649 48.5484 117.649 46.8031V46.7742H119.149V47.0339C119.149 47.8128 119.495 48.1013 120.865 48.1013C122.019 48.1013 122.236 47.8416 122.236 47.3079C122.236 46.731 121.889 46.5579 120.836 46.3704L119.726 46.1829C118.442 45.9521 117.634 45.3751 117.634 44.077C117.634 42.7788 118.702 41.9134 120.577 41.9134C122.264 41.9134 123.534 42.75 123.534 44.3799V44.5097H122.048V44.3366C122.048 43.6731 121.817 43.1971 120.533 43.1971C119.394 43.1971 119.12 43.5 119.12 44.0481C119.12 44.5962 119.38 44.7549 120.389 44.9568L121.601 45.1876C122.986 45.4617 123.707 46.0819 123.707 47.2647C123.707 48.5917 122.654 49.3706 120.836 49.3706Z" fill="#6422EF"/>
<path d="M27.5938 13.7784L18.0953 18.0968L13.7787 27.5934C13.6746 27.8226 13.5051 28.0158 13.2915 28.149C13.0779 28.2821 12.8297 28.3491 12.5782 28.3417C12.3266 28.3342 12.0828 28.2526 11.8775 28.107C11.6722 27.9615 11.5144 27.7585 11.4241 27.5236L2.39317 4.04407C2.30873 3.81364 2.29198 3.56387 2.34487 3.32423C2.39777 3.08459 2.51812 2.86508 2.69171 2.69161C2.86531 2.51814 3.0849 2.39795 3.32458 2.34522C3.56426 2.2925 3.81402 2.30944 4.04439 2.39404L27.524 11.4243C27.7558 11.5176 27.9554 11.6765 28.0983 11.8815C28.2413 12.0865 28.3214 12.3287 28.3288 12.5785C28.3362 12.8283 28.2706 13.0748 28.1401 13.2879C28.0095 13.5011 27.8197 13.6715 27.5938 13.7784Z" fill="#FFE245"/>
</svg>
