<svg width="48" height="48" viewBox="0 0 48 48" fill="none" xmlns="http://www.w3.org/2000/svg">
<g clip-path="url(#clip0_164_86)">
<path d="M28.2188 45.1875V48H19.7812C19.7812 46.9823 19.7812 46.2052 19.7812 45.1875H28.2188Z" fill="#1C78BF"/>
<path d="M7.03125 18.375C4.48682 18.375 2.54443 18.375 0 18.375C0 17.3573 0 16.5802 0 15.5625H7.03125V18.375Z" fill="#FFDA2D"/>
<path d="M6.49587 11.1956C4.46047 10.1779 2.90664 9.40076 0.870872 8.38306C1.32607 7.47266 1.67397 6.77759 2.12917 5.86719C4.16457 6.88489 5.71841 7.66199 7.75417 8.67969C7.29897 9.59009 6.95107 10.2852 6.49587 11.1956Z" fill="#FFDA2D"/>
<path d="M2.12917 28.0706C1.67397 27.1602 1.32607 26.4651 0.870872 25.5547C2.90664 24.537 4.46047 23.7599 6.49587 22.7422C6.95107 23.6526 7.29897 24.3477 7.75417 25.2581C5.71841 26.2758 4.16457 27.0529 2.12917 28.0706Z" fill="#FFDA2D"/>
<path d="M47.9998 18.375C45.4554 18.375 43.513 18.375 40.9685 18.375C40.9685 17.3573 40.9685 16.5802 40.9685 15.5625H47.9998V18.375Z" fill="#FDBF00"/>
<path d="M41.5044 11.1956C41.0492 10.2852 40.7013 9.59009 40.2461 8.67969C42.2819 7.66199 43.8357 6.88489 45.8711 5.86719C46.3263 6.77759 46.6742 7.47266 47.1294 8.38306C45.0936 9.40076 43.5398 10.1779 41.5044 11.1956Z" fill="#FDBF00"/>
<path d="M45.8711 28.0706C43.8357 27.0529 42.2819 26.2758 40.2461 25.2581C40.7013 24.3477 41.0492 23.6526 41.5044 22.7422C43.5398 23.7599 45.0936 24.537 47.1294 25.5547C46.6742 26.4651 46.3263 27.1602 45.8711 28.0706Z" fill="#FDBF00"/>
<path d="M31.0312 36.6562V42.2812H16.9688C16.9688 40.2458 16.9688 38.6917 16.9688 36.6562C18.241 35.6385 19.2122 34.8615 20.4844 33.8438H28.3876C29.3441 34.8615 30.0747 35.6385 31.0312 36.6562Z" fill="#E0F4FF"/>
<path d="M24 45.1875H28.2188V48C26.692 48 25.5267 48 24 48C24 46.9823 24 46.2052 24 45.1875Z" fill="#145383"/>
<path d="M31.0312 36.6562V42.2812C28.4868 42.2812 26.5444 42.2812 24 42.2812C24 39.2281 24 36.8969 24 33.8438H28.3876C29.3441 34.8615 30.0747 35.6385 31.0312 36.6562Z" fill="#BBDCFF"/>
<path d="M36.1219 16.9688C37.3557 18.0557 38.0625 19.5634 38.0625 21.1875C38.0625 23.8748 36.1655 26.1339 33.6185 26.7001C32.9191 26.84 32.4375 27.4548 32.4375 28.1624V28.1906V28.2188C32.4375 30.0458 31.2576 31.5934 29.625 32.1844V35.25H18.375C18.375 34.1407 18.375 33.2937 18.375 32.1844C16.7424 31.5934 15.5625 30.0458 15.5625 28.2188C15.5625 27.713 15.6467 27.2626 15.8156 26.8125C12.5929 26.9524 9.9375 24.3776 9.9375 21.1875C9.9375 19.5634 10.6443 18.0557 11.8781 16.9688C10.6472 15.884 9.9375 14.3774 9.9375 12.75C9.9375 9.65662 12.4684 7.125 15.5625 7.125C15.5625 4.03162 18.0934 1.40625 21.1875 1.40625C22.2059 1.40625 23.1324 1.70215 24 2.1936C24.8676 1.70215 25.7941 1.40625 26.8125 1.40625C29.9059 1.40625 32.4375 4.03088 32.4375 7.125C35.5309 7.125 38.0625 9.65588 38.0625 12.75C38.0625 14.3774 37.3528 15.884 36.1219 16.9688Z" fill="#FFDA2D"/>
<path d="M36.1219 16.9688C37.3557 18.0557 38.0625 19.5634 38.0625 21.1875C38.0625 23.8748 36.1655 26.1339 33.6185 26.7001C32.9191 26.84 32.4375 27.4548 32.4375 28.1624V28.1906V28.2188C32.4375 30.0458 31.2576 31.5934 29.625 32.1844V35.25C27.5896 35.25 26.0354 35.25 24 35.25C24 23.3221 24 14.1215 24 2.1936C24.8676 1.70215 25.7941 1.40625 26.8125 1.40625C29.9059 1.40625 32.4375 4.03088 32.4375 7.125C35.5309 7.125 38.0625 9.65588 38.0625 12.75C38.0625 14.3774 37.3528 15.884 36.1219 16.9688Z" fill="#FDBF00"/>
<path d="M39.4687 12.75C39.4687 9.34753 37.0225 6.45557 33.7313 5.83118C33.108 2.5459 30.2205 0 26.8125 0C25.819 0 24.8921 0.200684 24 0.61853C23.1079 0.200684 22.181 0 21.1875 0C17.7843 0 14.8927 2.54114 14.2687 5.83118C10.9838 6.45447 8.53125 9.34131 8.53125 12.75C8.53125 14.2233 9.01025 15.724 9.9657 16.9688C9.06702 18.1399 8.53125 19.6216 8.53125 21.1875C8.53125 23.131 9.2926 24.9298 10.697 26.25C11.6748 27.2 12.8522 27.8229 14.1562 28.0781V28.2188C14.1562 30.2651 15.2732 32.0837 16.9687 33.0842V36.6562H31.0312C31.0312 35.3639 31.0312 34.377 31.0312 33.0842C32.7268 32.0837 33.8437 30.2651 33.8437 28.2188L33.9001 28.0781C37.1309 27.3757 39.4687 24.4816 39.4687 21.1875C39.4687 19.7172 38.9916 18.2161 38.0343 16.9688C38.9348 15.7954 39.4687 14.313 39.4687 12.75ZM22.5937 33.8438C21.576 33.8438 20.7989 33.8438 19.7812 33.8438C19.7812 32.8872 19.7812 32.1566 19.7812 31.2001C18.1571 30.6094 16.9687 29.9916 16.9687 28.2188C16.9687 27.5632 17.5836 25.9893 17.8125 25.3217C17.6711 25.3275 15.6617 25.4114 15.5233 25.4114C14.4012 25.4114 13.4136 24.9752 12.6376 24.2249C11.8026 23.4459 11.3437 22.3542 11.3437 21.1875C11.3437 20.1123 11.7708 19.1569 12.4687 18.375H14.3533C14.9791 20.8228 17.1896 22.5938 19.7812 22.5938V19.7812C18.2344 19.7812 16.9687 18.5156 16.9687 16.9688C16.9687 15.4219 18.2344 14.1562 19.7812 14.1562V11.3438C17.1896 11.3438 14.9791 13.1147 14.3533 15.5625C13.6714 15.5625 13.1506 15.5625 12.4687 15.5625C11.7151 14.718 11.3437 13.7494 11.3437 12.75C11.3437 10.4154 13.2279 8.53125 15.5625 8.53125H16.9687C16.9687 8.02222 16.9687 7.63403 16.9687 7.125C16.9687 4.79041 18.8529 2.8125 21.1875 2.8125C21.6658 2.8125 22.144 2.92493 22.5937 3.09375V33.8438ZM31.0312 16.9688C31.0312 18.5156 29.7656 19.7812 28.2187 19.7812V22.5938C30.8104 22.5938 33.0209 20.8228 33.6467 18.375H35.5312C36.2292 19.1569 36.6562 20.1123 36.6562 21.1875C36.6562 23.1519 35.2529 24.8994 33.3094 25.3217C32.0156 25.597 31.0305 26.7708 31.0305 28.1331C31.0305 28.1521 31.0309 28.1715 31.0312 28.1906V28.2188C31.0312 30.1479 29.7418 30.6464 28.2187 31.2001V33.8438C27.201 33.8438 26.4239 33.8438 25.4062 33.8438C25.4062 22.7505 25.4062 14.187 25.4062 3.09375C25.856 2.92493 26.3342 2.8125 26.8125 2.8125C29.1471 2.8125 31.0312 4.79041 31.0312 7.125V8.53125H32.4375C34.7721 8.53125 36.6562 10.4154 36.6562 12.75C36.6562 13.7494 36.2849 14.718 35.5312 15.5625C34.8494 15.5625 34.3286 15.5625 33.6467 15.5625C33.0209 13.1147 30.8104 11.3438 28.2187 11.3438V14.1562C29.7656 14.1562 31.0312 15.4219 31.0312 16.9688Z" fill="#FDBF00"/>
<path d="M39.4687 12.75C39.4687 9.34753 37.0225 6.45557 33.7313 5.83118C33.108 2.5459 30.2205 0 26.8125 0C25.819 0 24.8921 0.200684 24 0.61853V36.6562H31.0312C31.0312 35.3639 31.0312 34.377 31.0312 33.0842C32.7268 32.0837 33.8437 30.2651 33.8437 28.2188L33.9001 28.0781C37.1309 27.3757 39.4687 24.4816 39.4687 21.1875C39.4687 19.7172 38.9916 18.2161 38.0343 16.9688C38.9348 15.7954 39.4687 14.313 39.4687 12.75ZM31.0312 16.9688C31.0312 18.5156 29.7656 19.7812 28.2187 19.7812V22.5938C30.8104 22.5938 33.0209 20.8228 33.6467 18.375H35.5312C36.2292 19.1569 36.6562 20.1123 36.6562 21.1875C36.6562 23.1519 35.2529 24.8994 33.3094 25.3217C32.0156 25.597 31.0305 26.7708 31.0305 28.1331C31.0305 28.1521 31.0309 28.1715 31.0312 28.1906V28.2188C31.0312 30.1479 29.7418 30.6464 28.2187 31.2001V33.8438C27.201 33.8438 26.4239 33.8438 25.4062 33.8438C25.4062 22.7505 25.4062 14.187 25.4062 3.09375C25.856 2.92493 26.3342 2.8125 26.8125 2.8125C29.1471 2.8125 31.0312 4.79041 31.0312 7.125V8.53125H32.4375C34.7721 8.53125 36.6562 10.4154 36.6562 12.75C36.6562 13.7494 36.2849 14.718 35.5312 15.5625C34.8494 15.5625 34.3286 15.5625 33.6467 15.5625C33.0209 13.1147 30.8104 11.3438 28.2187 11.3438V14.1562C29.7656 14.1562 31.0312 15.4219 31.0312 16.9688Z" fill="#FF9100"/>
</g>
<defs>
<clipPath id="clip0_164_86">
<rect width="48" height="48" fill="white"/>
</clipPath>
</defs>
</svg>
