<svg width="48" height="48" viewBox="0 0 48 48" fill="none" xmlns="http://www.w3.org/2000/svg">
<path d="M22.0293 14.2855C24.8167 13.2085 27.721 12.4628 30.6824 12.064L29.1546 16.1149H22.7928L22.0293 14.2855Z" fill="#AD6666"/>
<path d="M2.00471 26.3224C2.00471 26.3224 1.42207 30.9833 3.13412 35.7171L21.6321 42.5627V28.6223C21.6319 28.2262 21.7109 27.8341 21.8645 27.469C22.018 27.1039 22.243 26.7732 22.5261 26.4963C23.1514 25.8847 24.1905 25.0893 25.8923 24.2469L16.7159 14.6338C16.7159 14.6338 6.33883 15.2163 2.00471 26.3224Z" fill="#F9AC5F"/>
<path d="M21.6324 28.6223C21.6323 28.2262 21.7113 27.8341 21.8649 27.469C22.0184 27.1039 22.2434 26.7732 22.5265 26.4963C23.1518 25.8847 24.191 25.0893 25.8927 24.2469L16.7163 14.6338C16.7163 14.6338 6.33922 15.2164 2.0051 26.3224C1.85688 27.8791 1.87539 29.4472 2.0603 31C3.46148 31.7729 4.49969 31.9451 5.23847 31.8736C5.6361 31.8331 6.00888 31.6612 6.29782 31.385C6.58676 31.1089 6.77535 30.7442 6.83376 30.3488C6.96555 29.5371 7.20226 28.746 7.53795 27.9953C8.4803 28.1181 9.42251 27.8723 10.1189 26.5285C10.8154 25.1846 9.69216 23.0202 9.69216 23.0202C10.945 20.0523 14.6254 19.2285 14.6254 19.2285C16.7846 20.7987 17.9356 23.2324 18.4472 24.6121C18.6699 25.2143 18.7835 25.8513 18.7829 26.4933V32.9399C18.783 33.2766 18.7101 33.6093 18.5692 33.9151C18.4284 34.2209 18.223 34.4926 17.9671 34.7114C17.7112 34.9303 17.411 35.0911 17.087 35.1828C16.763 35.2744 16.423 35.2949 16.0904 35.2426C14.7118 35.0429 13.395 34.5385 12.2357 33.7661C11.0764 32.9937 10.1038 31.9727 9.38863 30.7773C9.34185 30.7009 9.27076 30.6424 9.18677 30.6112C9.10278 30.58 9.01074 30.5779 8.92541 30.6052C8.84007 30.6325 8.76638 30.6877 8.71613 30.7619C8.66589 30.8361 8.642 30.925 8.6483 31.0144C8.69434 31.627 8.77447 32.2366 8.8883 32.8403L8.97174 37.8771L21.633 42.5627L21.6324 28.6223Z" fill="#EA7F50"/>
<path d="M7.68564 14.0513C7.68564 14.0513 3.19623 17.924 1.41628 26.1288C1.33597 26.4954 1.32929 26.8743 1.39664 27.2435C1.46399 27.6127 1.60402 27.9648 1.80861 28.2795L2.49712 29.0277C2.74266 29.2346 3.00482 29.4209 3.28094 29.5848C3.5818 29.6153 3.8596 29.7597 4.05741 29.9884C4.1551 30.0324 4.25609 30.0756 4.36037 30.1181C4.48924 30.1704 4.62757 30.1954 4.76659 30.1915C4.90562 30.1876 5.04231 30.1549 5.16804 30.0954C5.29376 30.0359 5.40576 29.951 5.49697 29.846C5.58817 29.741 5.65658 29.6182 5.69788 29.4854L6.76955 26.0315L7.14028 26.3089C7.26843 26.4049 7.41468 26.4739 7.57022 26.5118C7.72576 26.5497 7.88736 26.5557 8.04529 26.5295C8.20322 26.5033 8.3542 26.4453 8.48914 26.3592C8.62408 26.2731 8.74018 26.1605 8.83044 26.0283C8.95641 25.8438 9.02773 25.6276 9.0362 25.4044C9.04466 25.1812 8.98993 24.9602 8.8783 24.7667L7.96969 23.1916C7.85398 22.9913 7.78743 22.7663 7.7755 22.5353C7.76357 22.3042 7.80661 22.0736 7.90108 21.8624C8.38687 20.7754 9.4944 18.6956 11.2893 17.4732L7.68564 14.0513Z" fill="#FFCAC0"/>
<path d="M17.414 17.6378L21.6472 21.5139C21.6472 21.5139 25.7762 19.6861 25.0422 15.2835L18.8446 12.4446C18.8446 12.4446 17.1865 13.6067 17.414 17.6378Z" fill="#FFCAC0"/>
<path d="M21.6472 21.5139C22.3179 21.1852 22.9293 20.7473 23.4564 20.2182C20.6576 17.5142 21.2618 14.7174 21.6128 13.7126L18.8447 12.4446C18.8447 12.4446 17.1865 13.6067 17.414 17.6378L21.6472 21.5139Z" fill="#EF9292"/>
<path d="M11.0439 18.4788H16.5639V20.3218C16.5639 21.0374 16.2797 21.7236 15.7738 22.2296C15.2679 22.7356 14.5817 23.02 13.8662 23.0201H13.7423C13.3879 23.0201 13.037 22.9503 12.7097 22.8147C12.3823 22.6791 12.0848 22.4804 11.8343 22.2298C11.5837 21.9792 11.3849 21.6818 11.2493 21.3544C11.1137 21.027 11.0439 20.6762 11.0439 20.3218V18.4788Z" fill="#AD6666"/>
<path d="M25.0415 15.2834C25.0415 15.2834 25.1863 18.4788 21.6465 21.5138C21.6465 21.5138 25.5637 25.2446 25.5637 28.9753V42.3314C25.5637 42.3314 37.9872 40.6898 44.1055 33.6015C44.5278 31.9471 44.7837 30.2546 44.8692 28.5492L37.8821 18.201L27.5732 16.038C26.7059 15.8731 25.8576 15.6203 25.0415 15.2834Z" fill="#6295D3"/>
<path d="M36.2024 16.2534L32.1373 16.5075C30.6059 16.4735 29.0796 16.3165 27.5732 16.0381C27.8779 17.8049 29.2748 21.4124 35.6627 19.5182C36.434 19.8251 37.0673 20.4022 37.4443 21.1418C37.4443 21.1418 36.2391 23.2902 37.8896 24.8097C37.8896 24.8097 38.9638 25.9886 40.6667 25.1241C41.2511 25.908 41.6781 26.7976 41.9243 27.7439C41.9243 27.7439 42.8399 29.5348 44.8685 28.5486C44.9888 26.6181 44.875 24.6802 44.5297 22.7771C44.5297 22.7771 41.2017 16.4026 36.2024 16.2534Z" fill="#346B99"/>
<path d="M38.0951 29.185C38.0898 29.0948 38.0525 29.0095 37.9898 28.9445C37.9271 28.8794 37.8432 28.839 37.7532 28.8305C37.6633 28.8219 37.5733 28.8459 37.4995 28.898C37.4257 28.95 37.3729 29.0268 37.3508 29.1144C36.9343 30.7635 36.1113 32.9033 34.518 34.1553C33.6482 34.8444 32.5596 35.1979 31.4509 35.1513C30.5705 35.1165 29.738 34.741 29.1292 34.1041C28.5204 33.4671 28.1829 32.6184 28.188 31.7373V28.9336C28.188 24.8498 25.1289 21.8578 23.1754 19.9355C22.7173 20.5092 22.2053 21.0377 21.6465 21.5138C21.6465 21.5138 25.5638 25.2445 25.5638 28.9752V42.3314C25.5638 42.3314 33.6924 41.2566 40.0375 37.0937L38.1034 31.6248C38.145 30.812 38.1422 29.9975 38.0951 29.185Z" fill="#346B99"/>
<path d="M41.9212 14.9854C43.8149 17.1797 45.3382 19.6681 46.4312 22.3526C46.7144 23.0331 46.7215 23.797 46.451 24.4826C46.1966 24.7294 46.0079 25.0359 45.9023 25.3742C45.6517 25.6793 45.3715 25.9588 45.0658 26.2086C44.7963 26.3488 44.5496 26.5289 44.3341 26.7429L44.2433 26.8021C44.1258 26.8765 43.9941 26.9257 43.8566 26.9466C43.7191 26.9675 43.5788 26.9596 43.4445 26.9235C43.3102 26.8873 43.1849 26.8237 43.0765 26.7366C42.968 26.6495 42.8789 26.5409 42.8146 26.4175L41.1455 23.2093L40.8299 23.5481C40.7209 23.6653 40.5892 23.7593 40.4429 23.8242C40.2966 23.8892 40.1386 23.9239 39.9786 23.9262C39.8185 23.9285 39.6596 23.8983 39.5115 23.8375C39.3634 23.7767 39.2291 23.6866 39.1168 23.5726C38.96 23.4135 38.8513 23.2133 38.8033 22.9952C38.7553 22.7771 38.7698 22.5499 38.8453 22.3397L39.4592 20.628C39.5374 20.4103 39.5628 20.1771 39.5333 19.9476C39.5039 19.7181 39.4204 19.4989 39.2898 19.3079C39.2125 19.195 39.1247 19.0697 39.0267 18.9363L41.9212 14.9854Z" fill="#CC938B"/>
<path d="M41.9198 14.9863C39.8415 12.606 38.1123 11.584 38.1123 11.584L35.1738 15.5925C36.9303 16.3744 38.2748 17.9121 39.0264 18.9373C41.3113 17.9258 41.8282 16.0858 41.9198 14.9863Z" fill="#AD6666"/>
<path d="M38.1644 16.8552H37.1434V12.4123H38.1644C38.7206 12.4123 39.254 12.6333 39.6473 13.0266C40.0406 13.4199 40.2616 13.9534 40.2616 14.5096V14.7579C40.2616 15.3141 40.0406 15.8476 39.6473 16.2409C39.254 16.6342 38.7206 16.8552 38.1644 16.8552Z" fill="#EF9292"/>
<path d="M30.4481 4.05481C30.4481 4.05481 27.0212 3.62945 26.4762 6.98112C25.9313 10.3328 28.7504 12.5435 28.7504 12.5435L38.1035 13.6321C38.1035 13.6321 40.1855 12.7991 40.1855 9.94851C40.1855 9.94851 40.6981 3.31815 35.3168 2.42126C35.3168 2.42126 32.1137 1.62051 30.4481 4.05481Z" fill="#F9AC5F"/>
<path d="M30.6822 17.9565H36.2022V19.7996C36.2022 20.1539 36.1324 20.5048 35.9968 20.8322C35.8612 21.1596 35.6624 21.457 35.4119 21.7076C35.1613 21.9582 34.8638 22.1569 34.5365 22.2925C34.2091 22.4281 33.8582 22.4979 33.5039 22.4979H33.3799C33.0256 22.4979 32.6747 22.4281 32.3473 22.2925C32.0199 22.1569 31.7225 21.9582 31.4719 21.7076C31.2214 21.457 31.0226 21.1596 30.887 20.8322C30.7514 20.5048 30.6816 20.1539 30.6816 19.7996V17.9565H30.6822Z" fill="#EF9292"/>
<path d="M28.3319 12.2292H29.3529V16.6722H28.3319C27.7756 16.6722 27.2422 16.4512 26.8488 16.0579C26.4555 15.6646 26.2346 15.1311 26.2346 14.5749V14.3266C26.2346 13.7703 26.4555 13.2369 26.8488 12.8435C27.2422 12.4502 27.7756 12.2292 28.3319 12.2292Z" fill="#EF9292"/>
<path d="M28.3661 10.0445C28.3661 10.0445 29.295 7.96234 32.0177 7.12939C32.0177 7.12939 32.591 8.93165 36.2089 9.63669C36.4647 9.68529 36.6978 9.81542 36.8734 10.0076C37.049 10.1998 37.1576 10.4436 37.183 10.7027C37.2881 11.7314 37.6013 12.7281 38.1035 13.632V14.1765C38.1034 15.4677 37.5903 16.7059 36.6773 17.6189C35.7642 18.5318 34.5259 19.0447 33.2348 19.0447C32.5954 19.0447 31.9623 18.9188 31.3716 18.6741C30.7809 18.4294 30.2442 18.0708 29.7921 17.6187C29.34 17.1665 28.9814 16.6298 28.7367 16.0391C28.492 15.4484 28.3661 14.8153 28.3661 14.1759V10.0445Z" fill="#FFCAC0"/>
<path d="M33.2352 17.2384C32.5582 17.2384 31.909 16.9695 31.4303 16.4908C30.9516 16.0121 30.6826 15.3628 30.6826 14.6858V14.0505H35.7878V14.6858C35.7878 15.3628 35.5189 16.0121 35.0402 16.4908C34.5615 16.9695 33.9122 17.2384 33.2352 17.2384Z" fill="white"/>
<path d="M38.1035 31.6256C38.1035 31.6256 41.5547 30.9986 44.1058 33.6021C44.1058 33.6021 41.9778 45.0805 28.3988 45.5243C27.2547 43.5666 26.754 41.5606 26.8968 39.5063C27.1913 39.387 27.4913 39.25 27.7937 39.0927L27.6199 38.1258C27.5788 37.897 27.617 37.661 27.7283 37.4569C27.8395 37.2528 28.0171 37.0928 28.2316 37.0034C28.4401 36.9165 28.6716 36.9012 28.8897 36.96C29.1078 37.0187 29.3003 37.1482 29.4369 37.3281L29.9951 38.0634C30.2358 38.3808 30.5551 38.63 30.9215 38.7865C31.2879 38.9429 31.6887 39.0011 32.0845 38.9553C34.0674 38.7256 37.5177 37.4744 38.1035 31.6256Z" fill="#FFCAC0"/>
<path d="M28.3273 40.1242C28.123 39.6322 27.4249 39.5171 26.8965 39.5051C25.5402 40.066 24.0806 40.3339 22.6135 40.2912L26.1329 45.4975C26.9221 45.5399 27.6758 45.5458 28.3986 45.5222C28.7494 43.8806 28.6165 40.82 28.3273 40.1242Z" fill="#EF9292"/>
<path d="M3.13379 35.7176C3.13379 35.7176 5.06367 33.4963 8.88701 32.8408C8.88701 32.8408 10.0792 39.0526 18.2161 40.0057C18.4069 40.0272 18.5999 39.9934 18.772 39.9083C18.9442 39.8232 19.0882 39.6904 19.187 39.5257L19.9468 38.2676C20.0275 38.1339 20.1414 38.0232 20.2774 37.9464C20.4135 37.8696 20.567 37.8291 20.7232 37.829C20.8425 37.829 20.9605 37.8525 21.0707 37.8981C21.1808 37.9437 21.2809 38.0106 21.3652 38.0949C21.4495 38.1792 21.5164 38.2793 21.562 38.3895C21.6077 38.4996 21.6312 38.6177 21.6312 38.7369V40.0683C22.927 40.4718 24.978 40.5224 26.1858 40.5119C26.3141 40.5107 26.4413 40.5349 26.5602 40.5831C26.6791 40.6314 26.7872 40.7027 26.8783 40.793C26.9695 40.8832 27.0418 40.9907 27.0912 41.1091C27.1406 41.2275 27.166 41.3545 27.166 41.4828V41.707C26.999 41.9752 27.0255 42.26 27.166 42.5552V43.4883C27.0904 43.6187 27.0507 43.7668 27.0507 43.9175C27.0507 44.0681 27.0904 44.2162 27.166 44.3466C27.1662 44.6322 27.0607 44.9079 26.8698 45.1204C26.6789 45.3329 26.4161 45.4673 26.132 45.4976C22.076 45.9306 7.26885 46.7124 3.13379 35.7176Z" fill="#CC938B"/>
<path d="M27.1673 42.5551V41.7069C26.3791 41.7445 25.5895 41.7415 24.8016 41.698C24.6904 41.6926 24.5815 41.7312 24.4985 41.8055C24.4155 41.8797 24.3651 41.9837 24.3582 42.0949C24.3513 42.206 24.3885 42.3154 24.4617 42.3993C24.5349 42.4833 24.6382 42.535 24.7492 42.5434C24.787 42.5458 25.3896 42.5822 26.1408 42.5822C26.4665 42.5822 26.8197 42.5746 27.1673 42.5551Z" fill="#AD6666"/>
<path d="M27.1669 44.338V43.4884C26.3825 43.5422 25.5952 43.5375 24.8115 43.4742C24.6996 43.4646 24.5884 43.4997 24.5024 43.572C24.4164 43.6443 24.3627 43.7478 24.353 43.8597C24.3433 43.9716 24.3785 44.0828 24.4508 44.1688C24.5231 44.2548 24.6266 44.3085 24.7385 44.3182C24.7787 44.3217 25.4195 44.3759 26.1768 44.3759C26.4988 44.3764 26.8402 44.3655 27.1669 44.338Z" fill="#AD6666"/>
<path d="M4.62394 26.9523C4.57393 26.9279 4.51961 26.9136 4.46407 26.9102C4.40854 26.9068 4.35289 26.9144 4.30029 26.9325C4.24769 26.9507 4.19918 26.979 4.15753 27.0159C4.11587 27.0528 4.0819 27.0975 4.05754 27.1475C3.70333 27.8744 3.41123 29.0242 3.28107 29.5844C3.53219 29.7336 3.79173 29.8682 4.05838 29.9874C4.13998 29.619 4.45213 28.272 4.81918 27.5185C4.84355 27.4685 4.85782 27.4142 4.86119 27.3587C4.86457 27.3032 4.85697 27.2475 4.83884 27.195C4.82071 27.1424 4.7924 27.0939 4.75553 27.0522C4.71865 27.0106 4.67394 26.9766 4.62394 26.9523Z" fill="#EF9292"/>
<path d="M2.98137 26.1408C2.93038 26.1185 2.87552 26.1066 2.81991 26.1055C2.7643 26.1045 2.70903 26.1145 2.65726 26.1348C2.60549 26.1551 2.55824 26.1854 2.51819 26.224C2.47814 26.2626 2.44609 26.3087 2.42386 26.3597C2.17416 26.9842 1.9689 27.6255 1.8096 28.2789C1.89203 28.4053 1.98482 28.5246 2.08701 28.6356C2.21575 28.7743 2.35276 28.905 2.49727 29.0271C2.61614 28.5257 2.90386 27.3782 3.20033 26.6977C3.24505 26.5948 3.24711 26.4784 3.20605 26.3739C3.165 26.2695 3.08419 26.1857 2.98137 26.1408Z" fill="#EF9292"/>
<path d="M45.0653 26.2086C44.6885 24.9804 43.8558 23.5545 43.8167 23.4884C43.7886 23.4403 43.7513 23.3982 43.7069 23.3645C43.6626 23.3308 43.612 23.3062 43.5581 23.2921C43.5042 23.278 43.448 23.2747 43.3928 23.2823C43.3376 23.29 43.2845 23.3084 43.2364 23.3366C43.1884 23.3648 43.1464 23.4023 43.1128 23.4467C43.0792 23.4912 43.0548 23.5419 43.0408 23.5958C43.0269 23.6497 43.0237 23.7059 43.0315 23.7611C43.0393 23.8163 43.0579 23.8693 43.0862 23.9173C43.096 23.9341 44.0575 25.5809 44.3337 26.743C44.5874 26.5788 44.8317 26.4004 45.0653 26.2086Z" fill="#AD6666"/>
<path d="M46.2177 24.939C46.3097 24.7945 46.388 24.6417 46.4513 24.4826C46.0975 23.7563 45.683 23.0612 45.2122 22.4046C45.1795 22.3596 45.1382 22.3216 45.0907 22.2926C45.0432 22.2636 44.9905 22.2442 44.9356 22.2356C44.8806 22.227 44.8245 22.2292 44.7704 22.2423C44.7164 22.2554 44.6654 22.279 44.6204 22.3117C44.5755 22.3445 44.5374 22.3858 44.5084 22.4332C44.4794 22.4807 44.46 22.5334 44.4514 22.5884C44.4428 22.6433 44.4451 22.6995 44.4581 22.7535C44.4712 22.8076 44.4948 22.8586 44.5275 22.9035C44.5381 22.9176 45.5299 24.2862 45.9027 25.3741C46.0159 25.2352 46.1211 25.0899 46.2177 24.939Z" fill="#AD6666"/>
<path d="M31.8358 12.2292C32.1345 12.2292 32.3766 11.987 32.3766 11.6883C32.3766 11.3896 32.1345 11.1475 31.8358 11.1475C31.5371 11.1475 31.2949 11.3896 31.2949 11.6883C31.2949 11.987 31.5371 12.2292 31.8358 12.2292Z" fill="#E58585"/>
<path d="M34.6334 12.2292C34.9321 12.2292 35.1743 11.987 35.1743 11.6883C35.1743 11.3896 34.9321 11.1475 34.6334 11.1475C34.3347 11.1475 34.0926 11.3896 34.0926 11.6883C34.0926 11.987 34.3347 12.2292 34.6334 12.2292Z" fill="#E58585"/>
<path d="M11.2906 17.473L7.68566 14.0513C7.68566 14.0513 6.76081 14.8515 5.58481 16.4887C6.47507 17.8709 8.13262 17.9569 8.13262 17.9569C8.32995 18.5927 8.68906 19.1663 9.17479 19.6215C9.74824 18.7865 10.4645 18.0592 11.2906 17.473Z" fill="#EF9292"/>
<path d="M18.5296 16.5068H17.5086V12.0639H18.5296C19.0859 12.0639 19.6193 12.2848 20.0127 12.6782C20.406 13.0715 20.627 13.6049 20.627 14.1612V14.4095C20.627 14.9658 20.406 15.4992 20.0127 15.8925C19.6193 16.2859 19.0859 16.5068 18.5296 16.5068Z" fill="#AD6666"/>
<path d="M8.67062 12.064H9.69175V16.5069H8.67062C8.11438 16.5069 7.58092 16.286 7.18759 15.8926C6.79427 15.4993 6.5733 14.9659 6.5733 14.4096V14.1613C6.5733 13.605 6.79427 13.0716 7.18759 12.6783C7.58092 12.2849 8.11438 12.064 8.67062 12.064Z" fill="#AD6666"/>
<path d="M17.6615 3.6712C15.6306 2.40061 11.5705 2.40061 9.53952 3.6712C7.35792 5.03652 6.35133 7.67991 6.93283 10.1875C7.21519 11.4044 7.91203 12.5525 9.47133 12.9194H17.7302C19.2894 12.5523 19.9866 11.4044 20.2688 10.1875C20.85 7.67991 19.8436 5.03652 17.6615 3.6712Z" fill="#3C3C4F"/>
<path d="M17.553 11.6198C17.4015 11.4683 17.2837 11.2864 17.2074 11.0862C17.1311 10.8859 17.0981 10.6718 17.1104 10.4578L17.1762 9.31132C17.2085 8.76632 17.03 8.22975 16.6776 7.81278C16.3251 7.39582 15.8258 7.13041 15.283 7.07155C14.1649 6.95108 13.0371 6.95108 11.919 7.07155C11.3758 7.12994 10.8759 7.39511 10.523 7.81211C10.17 8.22911 9.99105 8.76594 10.0232 9.31132L10.0891 10.458C10.1014 10.6719 10.0683 10.886 9.992 11.0862C9.9157 11.2865 9.79792 11.4683 9.64639 11.6198C9.29632 11.9699 9.09964 12.4446 9.09961 12.9397V15.5515C9.26352 17.2456 10.101 18.2657 11.0097 18.8791C11.7758 19.3926 12.6772 19.6667 13.5995 19.6667C14.5217 19.6667 15.4231 19.3926 16.1892 18.8791C17.098 18.2657 17.9353 17.2453 18.0992 15.5515V12.9397C18.0991 12.4447 17.9025 11.9699 17.5526 11.6198H17.553Z" fill="#CC938B"/>
<path d="M13.5966 17.473C12.9195 17.4729 12.2703 17.204 11.7916 16.7252C11.3129 16.2465 11.0439 15.5972 11.0439 14.9202V14.2849H16.1492V14.9202C16.1492 15.5972 15.8802 16.2465 15.4015 16.7252C14.9228 17.204 14.2736 17.4729 13.5966 17.473Z" fill="white"/>
<path d="M12.1979 11.7528C12.4966 11.7528 12.7388 11.5107 12.7388 11.212C12.7388 10.9133 12.4966 10.6711 12.1979 10.6711C11.8992 10.6711 11.6571 10.9133 11.6571 11.212C11.6571 11.5107 11.8992 11.7528 12.1979 11.7528Z" fill="#9B5959"/>
<path d="M14.9949 11.7528C15.2937 11.7528 15.5358 11.5107 15.5358 11.212C15.5358 10.9133 15.2937 10.6711 14.9949 10.6711C14.6962 10.6711 14.4541 10.9133 14.4541 11.212C14.4541 11.5107 14.6962 11.7528 14.9949 11.7528Z" fill="#9B5959"/>
<path d="M38.1031 31.6254C38.0494 32.1735 37.9622 32.7178 37.8418 33.2552C39.0363 33.5751 41.5749 34.4622 43.104 36.4801C43.547 35.5621 43.883 34.5962 44.1054 33.6014C41.5543 30.9984 38.1031 31.6254 38.1031 31.6254Z" fill="#EF9292"/>
<path d="M9.4856 34.4613C9.22038 33.9474 9.01935 33.4028 8.88701 32.8398C5.06367 33.4959 3.13379 35.7177 3.13379 35.7177C3.57865 36.9114 4.19032 38.036 4.95059 39.0581C6.40908 36.5121 8.59351 35.0031 9.4856 34.4613Z" fill="#AD6666"/>
</svg>
