<svg width="48" height="48" viewBox="0 0 48 48" fill="none" xmlns="http://www.w3.org/2000/svg">
<path d="M15 18H4.5C3.67157 18 3 18.6716 3 19.5V43.5C3 44.3284 3.67157 45 4.5 45H15C15.8284 45 16.5 44.3284 16.5 43.5V19.5C16.5 18.6716 15.8284 18 15 18Z" fill="#FFCA28"/>
<path d="M25.5 10.5H15C14.1716 10.5 13.5 11.1716 13.5 12V43.5C13.5 44.3284 14.1716 45 15 45H25.5C26.3284 45 27 44.3284 27 43.5V12C27 11.1716 26.3284 10.5 25.5 10.5Z" fill="#FFB300"/>
<path d="M43.5 3H25.5C24.6716 3 24 3.67157 24 4.5V43.5C24 44.3284 24.6716 45 25.5 45H43.5C44.3284 45 45 44.3284 45 43.5V4.5C45 3.67157 44.3284 3 43.5 3Z" fill="#FF8F00"/>
<path d="M39 13.4999V19.4999C39 19.8978 38.842 20.2793 38.5607 20.5606C38.2794 20.8419 37.8978 20.9999 37.5 20.9999C37.1022 20.9999 36.7206 20.8419 36.4393 20.5606C36.158 20.2793 36 19.8978 36 19.4999V17.9999C30.9494 24.2392 24.1641 28.8428 16.5 31.2299C12.6118 32.4203 8.56627 33.0171 4.5 32.9999H3V29.9999H4.5C8.58244 29.9987 12.6368 29.3247 16.5 28.0049C23.2549 25.7134 29.2209 21.5522 33.705 16.0049L31.86 16.4999C31.4622 16.5954 31.0427 16.5289 30.6939 16.3152C30.3451 16.1014 30.0955 15.7578 30 15.3599C29.9045 14.9621 29.971 14.5427 30.1848 14.1938C30.3986 13.845 30.7422 13.5954 31.14 13.4999L37.14 11.9999C37.3614 11.9438 37.5927 11.9389 37.8162 11.9857C38.0398 12.0325 38.2497 12.1297 38.43 12.2699C38.6149 12.4158 38.7629 12.6032 38.8619 12.8169C38.9609 13.0306 39.0082 13.2646 39 13.4999Z" fill="#FFECB3"/>
<path d="M10.875 45H15C15.3978 45 15.7794 44.842 16.0607 44.5607C16.342 44.2794 16.5 43.8978 16.5 43.5V36L10.875 45Z" fill="#FFC107"/>
<path d="M13.5 40.8V43.5C13.5 43.8978 13.658 44.2793 13.9393 44.5606C14.2206 44.8419 14.6022 45 15 45H25.5C25.8978 45 26.2794 44.8419 26.5607 44.5606C26.842 44.2793 27 43.8978 27 43.5V19.2L13.5 40.8Z" fill="#FFA000"/>
<path d="M43.5 3H37.125L24 24V43.5C24 43.8978 24.158 44.2794 24.4393 44.5607C24.7206 44.842 25.1022 45 25.5 45H43.5C43.8978 45 44.2794 44.842 44.5607 44.5607C44.842 44.2794 45 43.8978 45 43.5V4.5C45 4.10218 44.842 3.72064 44.5607 3.43934C44.2794 3.15804 43.8978 3 43.5 3Z" fill="#FF6F00"/>
<path d="M37.1395 11.9999L31.1395 13.4999C30.7417 13.5954 30.3981 13.845 30.1843 14.1938C29.9705 14.5427 29.9041 14.9621 29.9995 15.3599C30.095 15.7578 30.3446 16.1014 30.6934 16.3152C31.0422 16.529 31.4617 16.5954 31.8595 16.4999L33.7045 16.0349C30.8672 19.555 27.4167 22.5329 23.5195 24.8249L20.5195 29.6999C26.5514 27.1119 31.8638 23.0967 35.9995 17.9999V19.4999C35.9995 19.8978 36.1576 20.2793 36.4389 20.5606C36.7202 20.8419 37.1017 21 37.4995 21C37.8974 21 38.2789 20.8419 38.5602 20.5606C38.8415 20.2793 38.9995 19.8978 38.9995 19.4999V13.4999C39.0008 13.2721 38.9501 13.047 38.8513 12.8417C38.7525 12.6363 38.6083 12.4562 38.4295 12.3149C38.2531 12.1669 38.045 12.0616 37.8213 12.0069C37.5976 11.9523 37.3643 11.9499 37.1395 11.9999Z" fill="#FFE082"/>
</svg>
