<svg width="88" height="34" viewBox="0 0 88 34" fill="none" xmlns="http://www.w3.org/2000/svg">
<rect width="87.4562" height="33.9193" rx="5.69123" fill="white"/>
<path d="M20.5686 20.9597H15.2757V13.3335H16.5051V19.8556H20.5686V20.9597ZM22.8477 21.0735C21.8346 21.0735 21.0492 20.5499 21.0492 19.5597C21.0492 18.6263 21.7322 18.1369 22.9387 17.9661L24.9193 17.6702V17.3629C24.9193 16.5206 24.5323 16.2701 23.6444 16.2701C22.7452 16.2701 22.3924 16.5547 22.3924 17.3059V17.4767H21.2086V17.3629C21.2086 16.0994 22.1989 15.1888 23.7127 15.1888C25.2949 15.1888 26.0917 16.1449 26.0917 17.5222V20.9597H24.9534V20.0719H24.8965C24.5664 20.6069 23.9176 21.0735 22.8477 21.0735ZM22.2444 19.4686C22.2444 19.9125 22.529 20.0946 23.2461 20.0946C24.0428 20.0946 24.9193 19.7759 24.9193 18.6377V18.5353L23.1208 18.8084C22.472 18.8995 22.2444 19.0475 22.2444 19.4686ZM27.9139 22.8947C27.6066 22.8947 27.2537 22.8492 27.0602 22.7923V21.7906H27.8343C28.3237 21.7906 28.4944 21.711 28.6766 21.2898L28.8928 20.8117L26.4911 15.3026H27.8456L28.9839 18.0458L29.4961 19.2751H29.5872L30.0538 18.0458L31.0896 15.3026H32.4442L29.7693 21.6313C29.3481 22.6329 28.8018 22.8947 27.9139 22.8947ZM35.3088 21.0735C33.4421 21.0735 32.5656 19.8898 32.5656 18.1255C32.5656 16.3726 33.6128 15.1888 35.2974 15.1888C36.8227 15.1888 37.8926 16.0994 37.8926 17.6474C37.8926 17.9434 37.8585 18.2507 37.8243 18.4214H33.7153C33.7608 19.4572 34.1364 19.9808 35.3202 19.9808C36.2649 19.9808 36.6292 19.6621 36.6292 19.1499V19.0588H37.8471V19.1613C37.8471 20.3223 36.834 21.0735 35.3088 21.0735ZM35.2747 16.2246C34.2047 16.2246 33.7949 16.7254 33.7266 17.6019H36.7202C36.7658 16.6344 36.2422 16.2246 35.2747 16.2246ZM40.1029 20.9597H38.8736V15.2685H40.0004V16.1677H40.0573C40.285 15.6441 40.8086 15.1888 41.6395 15.1888C42.8233 15.1888 43.2786 16.0539 43.2786 17.1124V17.4881H42.0493V17.2604C42.0493 16.5092 41.833 16.236 41.1159 16.236C40.376 16.236 40.1029 16.5206 40.1029 17.2718V20.9597ZM47.5512 20.9597H46.3219V13.3335H48.0634L49.8049 17.5222L50.4765 19.3434H50.5675L51.2277 17.5222L52.9351 13.3335H54.6766V20.9597H53.4587V16.4523L53.5042 15.1774H53.4245L52.9465 16.4523L51.2391 20.5044H49.7594L48.0406 16.4523L47.5853 15.1774H47.4829L47.5512 16.4523V20.9597ZM57.4619 21.0735C56.4489 21.0735 55.6635 20.5499 55.6635 19.5597C55.6635 18.6263 56.3464 18.1369 57.553 17.9661L59.5335 17.6702V17.3629C59.5335 16.5206 59.1465 16.2701 58.2587 16.2701C57.3595 16.2701 57.0066 16.5547 57.0066 17.3059V17.4767H55.8228V17.3629C55.8228 16.0994 56.8131 15.1888 58.327 15.1888C59.9092 15.1888 60.7059 16.1449 60.7059 17.5222V20.9597H59.5677V20.0719H59.5108C59.1807 20.6069 58.5319 21.0735 57.4619 21.0735ZM56.8587 19.4686C56.8587 19.9125 57.1432 20.0946 57.8603 20.0946C58.6571 20.0946 59.5335 19.7759 59.5335 18.6377V18.5353L57.7351 18.8084C57.0863 18.8995 56.8587 19.0475 56.8587 19.4686ZM64.2286 21.0735C62.5782 21.0735 61.7131 20.4247 61.7131 19.0475V19.0247H62.8969V19.2296C62.8969 19.8442 63.1701 20.0719 64.2514 20.0719C65.162 20.0719 65.3327 19.867 65.3327 19.4458C65.3327 18.9906 65.0595 18.854 64.2286 18.706L63.3522 18.558C62.3391 18.3759 61.7017 17.9206 61.7017 16.8962C61.7017 15.8718 62.544 15.1888 64.0237 15.1888C65.3555 15.1888 66.3571 15.849 66.3571 17.1352V17.2377H65.1847V17.1011C65.1847 16.5775 65.0026 16.2018 63.9896 16.2018C63.0904 16.2018 62.8741 16.4409 62.8741 16.8734C62.8741 17.3059 63.079 17.4312 63.8758 17.5905L64.8319 17.7726C65.9246 17.9889 66.4937 18.4783 66.4937 19.4117C66.4937 20.4589 65.6628 21.0735 64.2286 21.0735ZM68.6702 20.9597H67.4409V13.3335H68.6702V17.545H69.7857L71.2995 15.3026H72.7451L70.7759 17.9775L72.711 20.9597H71.2768L69.797 18.6491H68.6702V20.9597Z" fill="#0630C7"/>
</svg>
