<svg width="194" height="66" viewBox="0 0 194 66" fill="none" xmlns="http://www.w3.org/2000/svg">
<g clip-path="url(#clip0_164_49)">
<path fill-rule="evenodd" clip-rule="evenodd" d="M51.302 28.6765L45.2516 43.1107C44.5866 44.6972 42.2445 44.3595 42.0572 42.6498L41.2332 35.205C41.203 34.9319 41.1058 34.6706 40.9502 34.4442C40.7946 34.2178 40.5855 34.0333 40.3414 33.9073C40.0973 33.7812 39.8258 33.7174 39.5511 33.7216C39.2765 33.7258 39.0071 33.7978 38.7669 33.9312L18.9628 48.5781C17.5795 49.3462 16.0046 47.9337 16.6164 46.4761L30.9935 26.8778C31.0997 26.6245 31.1416 26.3489 31.1156 26.0754C31.0896 25.802 30.9964 25.5393 30.8443 25.3105C30.6922 25.0818 30.486 24.8942 30.2439 24.7644C30.0019 24.6346 29.7315 24.5667 29.4568 24.5666L21.8582 24.5644C20.1399 24.5644 19.5457 22.2751 21.0493 21.44L34.7344 13.8393C35.0372 13.6708 35.3851 13.601 35.7295 13.6395C36.0739 13.678 36.3977 13.8229 36.6559 14.0541L50.8754 26.7897C51.134 27.0207 51.314 27.3267 51.3905 27.6649C51.4669 28.0031 51.436 28.3567 51.302 28.6765Z" fill="#2A1060"/>
<path fill-rule="evenodd" clip-rule="evenodd" d="M63.2292 5.00914L57.0731 19.6908C56.116 21.9737 53.1939 22.6327 51.3497 20.9796L43.5857 14.028C41.7415 12.3762 42.0752 9.3987 44.24 8.19671L58.1587 0.467938C61.1487 -1.19157 64.551 1.85638 63.2292 5.00914Z" fill="#2A1060"/>
<path fill-rule="evenodd" clip-rule="evenodd" d="M10.1507 51.3536C13.6459 49.9407 16.7312 54.103 14.3607 57.0367C12.2536 59.6447 8.04012 58.2748 7.87 54.9266C7.83119 54.1677 8.03004 53.4157 8.43886 52.7753C8.84767 52.1349 9.44608 51.6379 10.1507 51.3536Z" fill="#2A1060"/>
<path fill-rule="evenodd" clip-rule="evenodd" d="M9.92252 61.3289C12.0705 60.4611 13.9645 63.018 12.5091 64.8193C11.2152 66.4213 8.6273 65.5797 8.52248 63.5232C8.49882 63.0573 8.62095 62.5956 8.87187 62.2023C9.12278 61.8091 9.49003 61.5038 9.92252 61.3289Z" fill="#2A1060"/>
<path fill-rule="evenodd" clip-rule="evenodd" d="M2.47485 51.7727C4.24777 51.0557 5.8132 53.168 4.6112 54.6552C3.54238 55.9784 1.40517 55.2833 1.31882 53.5847C1.29916 53.2 1.39995 52.8187 1.60715 52.4939C1.81435 52.1691 2.11766 51.917 2.47485 51.7727Z" fill="#2A1060"/>
<path fill-rule="evenodd" clip-rule="evenodd" d="M5.07452 57.5698C6.55145 56.9727 7.85526 58.7323 6.85431 59.9713C5.96377 61.0736 4.18312 60.4945 4.11137 59.0794C4.09505 58.7589 4.17904 58.4413 4.35166 58.1707C4.52429 57.9001 4.77696 57.6901 5.07452 57.5698Z" fill="#2A1060"/>
<path fill-rule="evenodd" clip-rule="evenodd" d="M0.414882 58.31C1.05068 58.0522 1.61215 58.8105 1.18084 59.344C0.797647 59.8166 0.0308272 59.5691 -0.000103313 58.96H-0.000962494C-0.00790533 58.8218 0.0284267 58.685 0.102969 58.5684C0.177511 58.4519 0.286548 58.3616 0.414882 58.31Z" fill="#2A1060"/>
<path fill-rule="evenodd" clip-rule="evenodd" d="M5.61073 63.5763C6.24696 63.3186 6.808 64.0768 6.37712 64.6104C5.9935 65.0829 5.22711 64.8359 5.19618 64.2263C5.18913 64.0883 5.22528 63.9516 5.29958 63.8351C5.37388 63.7186 5.48264 63.6281 5.61073 63.5763Z" fill="#2A1060"/>
<path fill-rule="evenodd" clip-rule="evenodd" d="M1.09162 62.6032C1.72742 62.3454 2.28889 63.1037 1.85801 63.6372C1.47439 64.1119 0.707567 63.8623 0.676636 63.2532C0.669628 63.1151 0.705834 62.9783 0.780215 62.8618C0.854595 62.7453 0.963449 62.6549 1.09162 62.6032Z" fill="#2A1060"/>
</g>
<path d="M81.1585 36.8284H72.1837V13.3397H81.1585C84.9447 13.3397 87.9129 14.3798 90.0631 16.4599C92.2367 18.54 93.3235 21.4147 93.3235 25.0841C93.3235 28.7534 92.2367 31.6281 90.0631 33.7082C87.9129 35.7883 84.9447 36.8284 81.1585 36.8284ZM81.0884 18.0725H77.4424V32.0956H81.0884C83.5424 32.0956 85.2485 31.6048 86.2068 30.6232C87.1884 29.6415 87.6792 27.7952 87.6792 25.0841C87.6792 22.3729 87.1884 20.5266 86.2068 19.5449C85.2485 18.5633 83.5424 18.0725 81.0884 18.0725ZM113.618 36.8284H95.7038V13.3397H113.618V18.0725H100.962V22.6651H113.092V27.3628H100.962V32.0956H113.618V36.8284ZM126.239 37.1789C119.508 37.1789 116.143 34.5146 116.143 29.1858V28.73H121.296V29.0806C121.296 30.3894 121.635 31.2776 122.313 31.745C122.991 32.1891 124.381 32.4111 126.485 32.4111C127.934 32.4111 128.915 32.2592 129.43 31.9554C129.944 31.6281 130.201 31.0555 130.201 30.2375C130.201 29.3961 129.979 28.8002 129.535 28.4496C129.114 28.099 128.121 27.7952 126.555 27.5381L122.418 26.8019C118.164 26.0774 116.038 23.8453 116.038 20.1059C116.038 18.1193 116.809 16.4365 118.351 15.0576C119.917 13.6786 122.266 12.9892 125.398 12.9892C128.6 12.9892 130.984 13.7254 132.55 15.1978C134.116 16.6702 134.899 18.6451 134.899 21.1225V21.403H129.71V21.0174C129.71 19.7787 129.395 18.9256 128.763 18.4582C128.132 17.9907 126.952 17.757 125.223 17.757C123.75 17.757 122.722 17.9323 122.138 18.2829C121.553 18.6101 121.261 19.1476 121.261 19.8955C121.261 20.6434 121.472 21.1693 121.892 21.4731C122.313 21.7536 123.224 22.0224 124.627 22.2794L128.799 23.0858C133.216 23.9272 135.424 26.2526 135.424 30.0622C135.424 32.119 134.677 33.8251 133.181 35.1807C131.685 36.5129 129.371 37.1789 126.239 37.1789ZM142.799 36.8284H137.54V13.3397H142.799V36.8284ZM155.708 37.1789C152.366 37.1789 149.795 36.1155 147.996 33.9887C146.196 31.8385 145.296 28.8703 145.296 25.0841C145.296 21.3913 146.313 18.4582 148.346 16.2846C150.38 14.0876 153.172 12.9892 156.725 12.9892C160.161 12.9892 162.802 13.7838 164.648 15.3731C166.518 16.9624 167.453 19.171 167.453 21.999V22.1743H161.878V22.034C161.878 20.5616 161.481 19.5333 160.687 18.949C159.892 18.3647 158.536 18.0725 156.62 18.0725C154.54 18.0725 153.067 18.575 152.203 19.58C151.338 20.5616 150.905 22.3963 150.905 25.0841C150.905 27.8186 151.361 29.6883 152.273 30.6933C153.208 31.6749 154.82 32.1657 157.111 32.1657C159.05 32.1657 160.429 31.932 161.247 31.4645C162.065 30.9971 162.474 30.0856 162.474 28.73H156.059V24.3478H167.523V36.8284H162.65V33.2525H162.439C162.019 34.3276 161.259 35.2508 160.161 36.022C159.086 36.7933 157.601 37.1789 155.708 37.1789ZM175.905 36.8284H170.646V13.3397H176.256L183.863 25.1191L185.826 28.2743H186.177L186.107 25.1191V13.3397H191.366V36.8284H185.756L178.464 25.7151L176.186 22.1042H175.835L175.905 25.7151V36.8284Z" fill="#2A1060"/>
<path d="M82.6405 55.8284H72.4972V42.1267H75.5647V53.0676H82.6405V55.8284ZM86.2105 55.8284H83.0203L88.0715 42.1267H92.5297L97.5809 55.8284H94.2475L93.1432 52.7813H87.3353L86.2105 55.8284ZM89.1145 47.9141L88.3374 50.0409H92.1411L91.364 47.9141L90.362 44.8261H90.1574L89.1145 47.9141ZM108.649 54.5809C107.627 55.5489 106.134 56.0329 104.171 56.0329C102.208 56.0329 100.715 55.5489 99.6922 54.5809C98.6697 53.5993 98.1585 52.2359 98.1585 50.4908V42.1267H101.206V50.4499C101.206 51.4316 101.417 52.1132 101.84 52.495C102.262 52.8767 103.039 53.0676 104.171 53.0676C105.289 53.0676 106.059 52.8767 106.482 52.495C106.904 52.1132 107.116 51.4316 107.116 50.4499V42.1267H110.183V50.4908C110.183 52.2359 109.672 53.5993 108.649 54.5809ZM115.147 55.8284H112.08V42.1267H115.352L119.789 48.998L120.935 50.8385H121.139L121.098 48.998V42.1267H124.166V55.8284H120.894L116.64 49.3456L115.311 47.2392H115.106L115.147 49.3456V55.8284ZM132.257 56.0329C130.212 56.0329 128.603 55.3989 127.431 54.131C126.272 52.8494 125.693 51.1316 125.693 48.9775C125.693 46.8234 126.272 45.1124 127.431 43.8445C128.603 42.5629 130.212 41.9222 132.257 41.9222C134.261 41.9222 135.802 42.413 136.879 43.3946C137.956 44.3762 138.495 45.7259 138.495 47.4437V47.6278H135.223V47.5255C135.223 46.5439 134.998 45.8623 134.548 45.4805C134.098 45.0851 133.328 44.8875 132.237 44.8875C131.037 44.8875 130.192 45.1738 129.701 45.7464C129.21 46.319 128.965 47.396 128.965 48.9775C128.965 50.559 129.21 51.6361 129.701 52.2087C130.192 52.7813 131.037 53.0676 132.237 53.0676C133.328 53.0676 134.098 52.8767 134.548 52.495C134.998 52.0996 135.223 51.4111 135.223 50.4295V50.3272H138.495V50.5113C138.495 52.2291 137.956 53.5788 136.879 54.5605C135.802 55.5421 134.261 56.0329 132.257 56.0329ZM143.047 55.8284H139.979V42.1267H143.047V47.5664H149.018V42.1267H152.086V55.8284H149.018V50.3068H143.047V55.8284ZM157.126 55.8284H154.059V42.1267H160.357C161.857 42.1267 163.07 42.5561 163.998 43.415C164.938 44.2739 165.409 45.4532 165.409 46.9529C165.409 48.4526 164.945 49.6319 164.018 50.4908C163.091 51.3361 161.871 51.7588 160.357 51.7588H157.126V55.8284ZM160.48 44.8875H157.126V49.0184H160.48C161.203 49.0184 161.694 48.8753 161.953 48.589C162.225 48.3027 162.362 47.7573 162.362 46.9529C162.362 46.1349 162.225 45.5896 161.953 45.3169C161.694 45.0306 161.203 44.8875 160.48 44.8875ZM167.692 55.8284H164.502L169.553 42.1267H174.011L179.063 55.8284H175.729L174.625 52.7813H168.817L167.692 55.8284ZM170.596 47.9141L169.819 50.0409H173.623L172.846 47.9141L171.844 44.8261H171.639L170.596 47.9141ZM184.937 55.8284H179.701V42.1267H184.937C187.145 42.1267 188.877 42.7334 190.131 43.9467C191.399 45.1601 192.033 46.8371 192.033 48.9775C192.033 51.118 191.399 52.7949 190.131 54.0083C188.877 55.2217 187.145 55.8284 184.937 55.8284ZM184.896 44.8875H182.769V53.0676H184.896C186.327 53.0676 187.323 52.7813 187.882 52.2087C188.454 51.6361 188.741 50.559 188.741 48.9775C188.741 47.396 188.454 46.319 187.882 45.7464C187.323 45.1738 186.327 44.8875 184.896 44.8875Z" fill="#2A1060"/>
<defs>
<clipPath id="clip0_164_49">
<rect width="63.5245" height="65.6565" fill="white"/>
</clipPath>
</defs>
</svg>
