<svg width="91" height="34" viewBox="0 0 91 34" fill="none" xmlns="http://www.w3.org/2000/svg">
<rect width="90.4562" height="33.9193" rx="5.69123" fill="white"/>
<path d="M20.34 20.9597H15.0472V13.3335H16.2765V19.8556H20.34V20.9597ZM23.4329 21.0735C21.6914 21.0735 20.61 19.8898 20.61 18.1255C20.61 16.3726 21.6914 15.1888 23.4329 15.1888C25.163 15.1888 26.2102 16.3726 26.2102 18.1255C26.2102 19.8898 25.163 21.0735 23.4329 21.0735ZM23.4329 19.9808C24.6166 19.9808 25.0264 19.4003 25.0264 18.1255C25.0264 16.862 24.6166 16.2815 23.4329 16.2815C22.2377 16.2815 21.8166 16.862 21.8166 18.1255C21.8166 19.4003 22.2377 19.9808 23.4329 19.9808ZM29.3815 20.4247C27.8221 20.4247 26.9571 19.4003 26.9571 17.8068C26.9571 16.2132 27.8335 15.1888 29.4271 15.1888C30.3377 15.1888 31.0434 15.5758 31.3166 16.236H31.3621V15.3026H32.489V20.5499C32.489 22.2232 31.5101 23.0086 29.8596 23.0086C28.2547 23.0086 27.253 22.2459 27.253 20.88H28.4709C28.4709 21.654 28.7555 21.9158 29.8938 21.9158C30.9979 21.9158 31.271 21.5971 31.271 20.5499V19.4231H31.2255C30.9637 19.9694 30.3035 20.4247 29.3815 20.4247ZM28.1864 17.8068C28.1864 18.9678 28.6644 19.3776 29.7344 19.3776C30.6564 19.3776 31.271 18.9336 31.271 17.9775V17.6247C31.271 16.6799 30.6564 16.236 29.7116 16.236C28.6531 16.236 28.1864 16.6458 28.1864 17.8068ZM36.2381 21.0735C34.4966 21.0735 33.4153 19.8898 33.4153 18.1255C33.4153 16.3726 34.4966 15.1888 36.2381 15.1888C37.9683 15.1888 39.0155 16.3726 39.0155 18.1255C39.0155 19.8898 37.9683 21.0735 36.2381 21.0735ZM36.2381 19.9808C37.4219 19.9808 37.8317 19.4003 37.8317 18.1255C37.8317 16.862 37.4219 16.2815 36.2381 16.2815C35.043 16.2815 34.6218 16.862 34.6218 18.1255C34.6218 19.4003 35.043 19.9808 36.2381 19.9808ZM44.8785 20.9597H42.1695V13.3335H44.8785C47.2347 13.3335 48.7372 14.7904 48.7372 17.1466C48.7372 19.5028 47.2347 20.9597 44.8785 20.9597ZM44.8785 14.4376H43.3988V19.8556H44.8785C46.6997 19.8556 47.4282 19.1044 47.4282 17.1466C47.4282 15.1888 46.6997 14.4376 44.8785 14.4376ZM52.2318 21.0735C50.365 21.0735 49.4886 19.8898 49.4886 18.1255C49.4886 16.3726 50.5358 15.1888 52.2204 15.1888C53.7456 15.1888 54.8156 16.0994 54.8156 17.6474C54.8156 17.9434 54.7814 18.2507 54.7473 18.4214H50.6382C50.6837 19.4572 51.0594 19.9808 52.2431 19.9808C53.1879 19.9808 53.5521 19.6621 53.5521 19.1499V19.0588H54.77V19.1613C54.77 20.3223 53.757 21.0735 52.2318 21.0735ZM52.1976 16.2246C51.1277 16.2246 50.7179 16.7254 50.6496 17.6019H53.6432C53.6887 16.6344 53.1651 16.2246 52.1976 16.2246ZM58.231 21.0735C56.5806 21.0735 55.7155 20.4247 55.7155 19.0475V19.0247H56.8993V19.2296C56.8993 19.8442 57.1725 20.0719 58.2538 20.0719C59.1644 20.0719 59.3351 19.867 59.3351 19.4458C59.3351 18.9906 59.0619 18.854 58.231 18.706L57.3546 18.558C56.3415 18.3759 55.7041 17.9206 55.7041 16.8962C55.7041 15.8718 56.5464 15.1888 58.0261 15.1888C59.3579 15.1888 60.3595 15.849 60.3595 17.1352V17.2377H59.1872V17.1011C59.1872 16.5775 59.005 16.2018 57.992 16.2018C57.0928 16.2018 56.8765 16.4409 56.8765 16.8734C56.8765 17.3059 57.0814 17.4312 57.8782 17.5905L58.8343 17.7726C59.927 17.9889 60.4961 18.4783 60.4961 19.4117C60.4961 20.4589 59.6652 21.0735 58.231 21.0735ZM62.604 14.5855H61.3861L61.3747 13.3335H62.604V14.5855ZM62.6154 20.9597H61.3861V15.2685H62.6154V20.9597ZM65.8855 20.4247C64.3261 20.4247 63.461 19.4003 63.461 17.8068C63.461 16.2132 64.3375 15.1888 65.931 15.1888C66.8416 15.1888 67.5473 15.5758 67.8205 16.236H67.866V15.3026H68.9929V20.5499C68.9929 22.2232 68.014 23.0086 66.3635 23.0086C64.7586 23.0086 63.7569 22.2459 63.7569 20.88H64.9749C64.9749 21.654 65.2594 21.9158 66.3977 21.9158C67.5018 21.9158 67.775 21.5971 67.775 20.5499V19.4231H67.7294C67.4676 19.9694 66.8074 20.4247 65.8855 20.4247ZM64.6903 17.8068C64.6903 18.9678 65.1684 19.3776 66.2383 19.3776C67.1603 19.3776 67.775 18.9336 67.775 17.9775V17.6247C67.775 16.6799 67.1603 16.236 66.2156 16.236C65.157 16.236 64.6903 16.6458 64.6903 17.8068ZM71.4318 20.9597H70.2024V15.3026H71.3293V16.3612H71.3748C71.6366 15.7579 72.2399 15.1888 73.344 15.1888C74.8123 15.1888 75.4725 16.1222 75.4725 17.4084V20.9597H74.2432V17.6816C74.2432 16.6685 73.9245 16.2474 72.8887 16.2474C71.8871 16.2474 71.4318 16.6344 71.4318 17.6929V20.9597Z" fill="#0630C7"/>
</svg>
