<svg width="48" height="48" viewBox="0 0 48 48" fill="none" xmlns="http://www.w3.org/2000/svg">
<g clip-path="url(#clip0_164_132)">
<path d="M29.0796 0V48H24.7662L24.7643 47.9981L23.7452 47.2322L21.9518 45.8841L7.26678 34.8422V13.1578L21.9518 2.11594L24.7643 0.001875L24.7662 0L29.0796 0Z" fill="#4A696F"/>
<path d="M29.0796 24V48H24.7662L24.7643 47.9981L23.7452 47.2322L21.9518 45.8841L7.26678 34.8422V24H29.0796Z" fill="#384949"/>
<path d="M33.1426 18.1759L31.4727 15.9128L36.9268 11.8882L39.0987 14.0524L42.712 11.1187L44.4848 13.302L38.9066 17.8312L36.6529 15.5856L33.1426 18.1759Z" fill="#FFA001"/>
<path d="M42.712 36.8812L39.0987 33.9475L36.9268 36.1117L31.4727 32.087L33.1426 29.824L36.6529 32.4143L38.9066 30.1686L44.4848 34.6978L42.712 36.8812Z" fill="#F87F02"/>
<path d="M47.9834 25.0189L42.3265 26.713L37.7337 24.3327L32.7996 26.1767L31.9859 23.9999L31.8152 23.5424L37.9193 21.2605L42.6096 23.6924L47.1762 22.3246L47.6777 23.9999L47.9834 25.0189Z" fill="#FFA001"/>
<path d="M24.7646 0.00195312V47.9982L23.7456 47.2323L21.9521 45.8841V2.20227L24.7646 0.00195312Z" fill="#384949"/>
<path d="M0.0166016 12.4473H8.18691V35.5529H0.0166016V12.4473Z" fill="#384949"/>
<path d="M0.0166016 24H8.18691V35.5528H0.0166016V24Z" fill="#293939"/>
<path d="M21.9521 24H24.7646V47.9981L23.7456 47.2322L21.9521 45.8841V24Z" fill="#293939"/>
<path d="M47.9829 25.0191L42.326 26.7131L37.7332 24.3328L32.7991 26.1769L31.9854 24H47.6772L47.9829 25.0191Z" fill="#F87F02"/>
</g>
<defs>
<clipPath id="clip0_164_132">
<rect width="48" height="48" fill="white"/>
</clipPath>
</defs>
</svg>
