<svg width="48" height="48" viewBox="0 0 48 48" fill="none" xmlns="http://www.w3.org/2000/svg">
<g clip-path="url(#clip0_164_106)">
<path d="M25.5896 0.00134277H24.324C24.2115 0.00134277 24.0989 0.0294678 23.9865 0.0294678C16.674 0.170093 10.3459 5.17644 8.57405 12.3201L8.12395 14.0638H13.6928C16.5332 14.0638 19.374 14.7388 21.9052 16.0045C22.5802 16.342 23.2833 16.567 23.9865 16.7076C24.5208 16.82 25.0552 16.8763 25.5896 16.8763C36.5748 16.8763 36.5794 0.00134277 25.5896 0.00134277Z" fill="#A0E65C"/>
<path d="M25.5895 16.8763C25.0551 16.8763 24.5207 16.82 23.9863 16.7076V0.0294678C24.0987 0.0294678 24.2114 0.00134277 24.3238 0.00134277H25.5895C36.5747 0.00134277 36.5793 16.8763 25.5895 16.8763Z" fill="#79CC52"/>
<path d="M39.2019 10.6606L37.4302 12.8544C33.6613 9.81686 28.7958 8.2982 23.9863 8.49507C22.2145 8.55123 20.4707 8.8607 18.7833 9.39507L17.9395 6.69498C19.9082 6.07614 21.9615 5.73864 23.9864 5.68248C29.4425 5.4857 34.8988 7.22945 39.2019 10.6606Z" fill="#79CC52"/>
<path d="M30.5692 33.1079C31.2064 32.0066 32.1031 31.0549 33.1633 30.3545C35.535 28.789 37.54 26.6604 38.9614 24.1966L41.7423 19.3805L43.0373 20.6329C48.4096 25.8281 49.5535 33.9772 45.8168 40.4509L45.1823 41.5467C39.7353 50.9957 25.0989 42.5803 30.5692 33.1079Z" fill="#79CC52"/>
<path d="M29.1632 47.9985L28.1387 45.3783C32.3766 43.7221 35.9637 40.6404 38.2379 36.7018C39.5219 34.4798 40.3582 32.0629 40.7249 29.5195L43.5099 29.9205C43.091 32.8195 42.1367 35.5744 40.6741 38.1081C38.0813 42.5988 33.9931 46.1103 29.1632 47.9985Z" fill="#59B348"/>
<path d="M2.8165 41.5455L2.18481 40.4523C-1.55328 33.9773 -0.409344 25.8282 4.963 20.633L6.25797 19.3806L9.03887 24.1967C10.4602 26.6604 12.4653 28.789 14.8369 30.3546C15.8972 31.055 16.7939 32.0067 17.4311 33.1081C22.904 42.585 8.27181 51.0037 2.8165 41.5455Z" fill="#A0E65C"/>
<path d="M18.837 47.9985C14.0071 46.1102 9.91883 42.5987 7.32608 38.1081C5.86348 35.5744 4.90911 32.8195 4.49023 29.9205L7.27527 29.5195C7.64192 32.0629 8.47827 34.4798 9.76227 36.7018C12.0365 40.6404 15.6235 43.7221 19.8615 45.3783L18.837 47.9985Z" fill="#79CC52"/>
<path d="M22.5804 35.8337V30.4957L15.9872 27.1998L25.3929 17.7942V23.1321L31.986 26.428L22.5804 35.8337Z" fill="#FFDF40"/>
<path d="M25.3926 23.132V17.7941L23.9863 19.2003V34.4274L31.9858 26.4279L25.3926 23.132Z" fill="#FFBE40"/>
<path d="M39.2019 10.6606L37.4302 12.8545C33.6613 9.8169 28.7958 8.29824 23.9863 8.49512V5.68262C29.4425 5.48574 34.8988 7.22949 39.2019 10.6606Z" fill="#59B348"/>
</g>
<defs>
<clipPath id="clip0_164_106">
<rect width="48" height="48" fill="white"/>
</clipPath>
</defs>
</svg>
