<svg width="118" height="53" viewBox="0 0 118 53" fill="none" xmlns="http://www.w3.org/2000/svg">
<rect width="92.4562" height="33.9193" rx="5.69123" fill="#FFE245"/>
<path d="M18.2556 20.9597H16.4685L14.7042 13.3335H16.1157L17.0604 17.6247L17.3905 19.7304H17.4816L17.971 17.6247L19.2345 13.3335H20.9532L22.2167 17.6247L22.7061 19.7304H22.7972L23.1273 17.6247L24.0834 13.3335H25.4721L23.6964 20.9597H21.9093L20.7483 17.0783L20.1337 14.7107H20.0312L19.4166 17.0783L18.2556 20.9597ZM27.3335 14.5855H26.1156L26.1042 13.3335H27.3335V14.5855ZM27.3449 20.9597H26.1156V15.2685H27.3449V20.9597ZM29.703 20.9597H28.4737V15.2685H29.6006V16.1677H29.6575C29.8852 15.6441 30.4088 15.1888 31.2397 15.1888C32.4235 15.1888 32.8787 16.0539 32.8787 17.1124V17.4881H31.6494V17.2604C31.6494 16.5092 31.4332 16.236 30.7161 16.236C29.9762 16.236 29.703 16.5206 29.703 17.2718V20.9597ZM36.1803 21.0735C34.3136 21.0735 33.4371 19.8898 33.4371 18.1255C33.4371 16.3726 34.4843 15.1888 36.1689 15.1888C37.6942 15.1888 38.7641 16.0994 38.7641 17.6474C38.7641 17.9434 38.73 18.2507 38.6958 18.4214H34.5867C34.6323 19.4572 35.0079 19.9808 36.1917 19.9808C37.1364 19.9808 37.5007 19.6621 37.5007 19.1499V19.0588H38.7186V19.1613C38.7186 20.3223 37.7055 21.0735 36.1803 21.0735ZM36.1461 16.2246C35.0762 16.2246 34.6664 16.7254 34.5981 17.6019H37.5917C37.6372 16.6344 37.1136 16.2246 36.1461 16.2246ZM43.4712 20.9597H42.2419V16.3271H41.411V15.3026H42.2419C42.2647 14.0278 43.0273 13.3335 44.4615 13.3335H44.9168V14.3124H44.2338C43.6875 14.3124 43.4371 14.5172 43.4371 14.9953V15.3026H44.9168V16.3271H43.4712V20.9597ZM46.799 20.9597H45.5697V15.2685H46.6965V16.1677H46.7534C46.9811 15.6441 47.5047 15.1888 48.3356 15.1888C49.5194 15.1888 49.9747 16.0539 49.9747 17.1124V17.4881H48.7454V17.2604C48.7454 16.5092 48.5291 16.236 47.812 16.236C47.0722 16.236 46.799 16.5206 46.799 17.2718V20.9597ZM52.1753 21.0735C51.1623 21.0735 50.3769 20.5499 50.3769 19.5597C50.3769 18.6263 51.0598 18.1369 52.2664 17.9661L54.2469 17.6702V17.3629C54.2469 16.5206 53.8599 16.2701 52.9721 16.2701C52.0729 16.2701 51.72 16.5547 51.72 17.3059V17.4767H50.5362V17.3629C50.5362 16.0994 51.5265 15.1888 53.0404 15.1888C54.6225 15.1888 55.4193 16.1449 55.4193 17.5222V20.9597H54.2811V20.0719H54.2242C53.8941 20.6069 53.2453 21.0735 52.1753 21.0735ZM51.572 19.4686C51.572 19.9125 51.8566 20.0946 52.5737 20.0946C53.3705 20.0946 54.2469 19.7759 54.2469 18.6377V18.5353L52.4485 18.8084C51.7997 18.8995 51.572 19.0475 51.572 19.4686ZM57.8257 20.9597H56.5964V15.3026H57.7233V16.3612H57.7688C58.0306 15.7579 58.6225 15.1888 59.7038 15.1888C60.6941 15.1888 61.3088 15.6441 61.582 16.3612H61.6161C61.8779 15.7693 62.4584 15.1888 63.5739 15.1888C65.0308 15.1888 65.6796 16.1222 65.6796 17.4084V20.9597H64.4503V17.6816C64.4503 16.6685 64.143 16.2474 63.1186 16.2474C62.1852 16.2474 61.7527 16.6344 61.7527 17.6702V20.9597H60.5234V17.6816C60.5234 16.6685 60.2161 16.2474 59.1916 16.2474C58.2583 16.2474 57.8257 16.6344 57.8257 17.6588V20.9597ZM69.3495 21.0735C67.4828 21.0735 66.6063 19.8898 66.6063 18.1255C66.6063 16.3726 67.6535 15.1888 69.3381 15.1888C70.8634 15.1888 71.9333 16.0994 71.9333 17.6474C71.9333 17.9434 71.8992 18.2507 71.865 18.4214H67.756C67.8015 19.4572 68.1771 19.9808 69.3609 19.9808C70.3056 19.9808 70.6699 19.6621 70.6699 19.1499V19.0588H71.8878V19.1613C71.8878 20.3223 70.8748 21.0735 69.3495 21.0735ZM69.3154 16.2246C68.2454 16.2246 67.8356 16.7254 67.7673 17.6019H70.7609C70.8065 16.6344 70.2829 16.2246 69.3154 16.2246ZM75.3488 21.0735C73.6983 21.0735 72.8333 20.4247 72.8333 19.0475V19.0247H74.017V19.2296C74.017 19.8442 74.2902 20.0719 75.3715 20.0719C76.2821 20.0719 76.4529 19.867 76.4529 19.4458C76.4529 18.9906 76.1797 18.854 75.3488 18.706L74.4723 18.558C73.4593 18.3759 72.8219 17.9206 72.8219 16.8962C72.8219 15.8718 73.6642 15.1888 75.1439 15.1888C76.4756 15.1888 77.4773 15.849 77.4773 17.1352V17.2377H76.3049V17.1011C76.3049 16.5775 76.1228 16.2018 75.1097 16.2018C74.2105 16.2018 73.9943 16.4409 73.9943 16.8734C73.9943 17.3059 74.1991 17.4312 74.9959 17.5905L75.952 17.7726C77.0448 17.9889 77.6139 18.4783 77.6139 19.4117C77.6139 20.4589 76.783 21.0735 75.3488 21.0735Z" fill="#6422EF"/>
<g clip-path="url(#clip0_0_232)">
<path d="M102.528 28.5372L100.687 36.5627L94.0253 41.3981C93.8645 41.5148 93.7418 41.6763 93.6726 41.8625C93.6033 42.0486 93.5906 42.2511 93.6361 42.4444C93.6815 42.6378 93.7831 42.8134 93.928 42.9492C94.0729 43.085 94.2548 43.175 94.4507 43.2078L114.03 46.4873C114.221 46.5163 114.417 46.4899 114.594 46.4112C114.771 46.3325 114.922 46.2048 115.028 46.0432C115.135 45.8816 115.193 45.6929 115.196 45.4992C115.199 45.3056 115.147 45.1151 115.045 44.9504L104.36 28.2199C104.251 28.0554 104.096 27.9261 103.915 27.8479C103.734 27.7697 103.534 27.746 103.34 27.7797C103.146 27.8133 102.966 27.9029 102.821 28.0375C102.677 28.172 102.575 28.3457 102.528 28.5372Z" fill="#FFE245"/>
</g>
<defs>
<clipPath id="clip0_0_232">
<rect width="24.1877" height="24.1877" fill="white" transform="matrix(-0.199867 -0.979823 -0.979823 0.199867 117.535 47.6997)"/>
</clipPath>
</defs>
</svg>
